<svg xmlns="http://www.w3.org/2000/svg" viewBox="0 0 128 160" x="0px" y="0px"><g><path fill="#E0AF81" d="M32.814,66.757a.269.269,0,0,0-.221-.121c-1.1.028-2.2.062-3.3.095-1.558.049-3.119.1-4.677.128a.253.253,0,0,0-.2.1.25.25,0,0,0-.041.215l.078.286A7.294,7.294,0,0,0,25.9,70.674a.256.256,0,0,0,.224.072,1.016,1.016,0,0,1,.187-.017l.879-.011a33.789,33.789,0,0,1,3.683.078H30.9a.251.251,0,0,0,.241-.182,16.893,16.893,0,0,1,1.675-3.607A.248.248,0,0,0,32.814,66.757Z"/><path fill="#E0AF81" d="M42.87,73.041a.254.254,0,0,0,.059-.211.25.25,0,0,0-.131-.177c-.848-.442-2.289.029-3.694.549a.249.249,0,0,0-.155.3,7.874,7.874,0,0,1,.218,1.282c-2.228-.052-5.57-.363-6.52-1.066a.249.249,0,0,0-.24-.032.253.253,0,0,0-.155.186,13.762,13.762,0,0,1-.816,2.758.251.251,0,0,0,.022.236.215.215,0,0,0,.21.111c1.392-.011,5.431-.043,7.379,0a4.531,4.531,0,0,1-.709,1.712.252.252,0,0,0-.023.254,2.762,2.762,0,0,0,2.491,1.583h.009a.248.248,0,0,0,.248-.276C40.749,77.266,41.39,74.708,42.87,73.041Z"/><path fill="#E0AF81" d="M30.661,72.288a26.91,26.91,0,0,0-3.068-.059l-.148,0a.251.251,0,0,0-.245.256c.011.492-.015,1-.041,1.5a9.927,9.927,0,0,0,.179,3.192.251.251,0,0,0,.082.127,1.047,1.047,0,0,1,.194.21c.233.318.453.618.784.632h.024a.773.773,0,0,0,.571-.319,6.246,6.246,0,0,0,1.048-1.961,15.427,15.427,0,0,0,.844-3.3.244.244,0,0,0-.053-.187A.25.25,0,0,0,30.661,72.288Z"/><path fill="#E0AF81" d="M25.677,73.164a.25.25,0,0,0-.381-.218c-1.953,1.2-6.357,1.742-8.926,1.7a4.225,4.225,0,0,0-.661-2.3,4.273,4.273,0,0,0-3.228-1.55,2.652,2.652,0,0,1,.176.413c.081.291.176.569.237.826.041.27.074.521.115.758a8.33,8.33,0,0,1-.061,2.253c-.054.278-.1.508-.155.7a3.8,3.8,0,0,1-.176.454c-.109.223-.19.3-.264.291s-.108-.136-.122-.372c-.007-.122-.007-.278,0-.461s-.007-.412,0-.676a13.369,13.369,0,0,0-.149-2.058,6.407,6.407,0,0,0-.683-2.05,3.211,3.211,0,0,0-2.606,2.172,4.411,4.411,0,0,0-.155,1.5.976.976,0,0,1,.162-.121,1.018,1.018,0,0,1,1.387.365,2.342,2.342,0,0,1-.169,2.463,1.29,1.29,0,0,1-.521.42,6.418,6.418,0,0,0,1.462,1.962,10.881,10.881,0,0,0,.832-1.725c.183-.44.345-.6.481-.575s.23.223.223.73a4.423,4.423,0,0,1-.7,2.139,2.68,2.68,0,0,0,3.052-.542,5.942,5.942,0,0,0,1.343-2.924c2.372-.008,6.923-.013,9.2.169h.02a.25.25,0,0,0,.248-.279,15.276,15.276,0,0,1-.021-2.43C25.656,73.85,25.671,73.506,25.677,73.164Z"/><path fill="#E0AF81" d="M67.917,71.578a.252.252,0,0,0-.188-.047c-.529.081-1.062.144-1.6.206-.7.083-1.429.168-2.138.3a.25.25,0,0,0-.206.246v.063a21.571,21.571,0,0,0,.18,3.178.245.245,0,0,0,.1.163.248.248,0,0,0,.145.047.3.3,0,0,0,.042,0,15.507,15.507,0,0,0,6.092-2.292.249.249,0,0,0,.111-.226A.252.252,0,0,0,70.318,73,13.648,13.648,0,0,1,67.917,71.578Z"/><path fill="#E0AF81" d="M88.374,74.255a2.753,2.753,0,0,1,.182.224c.109.162.2.324.3.467a5.675,5.675,0,0,1,.562,1.509c.155.785.04,1.109-.088,1.13-.149.027-.284-.244-.6-.907a11.882,11.882,0,0,0-.676-1.245,3.275,3.275,0,0,0-1.178-1.11,4.351,4.351,0,0,0-3.471,2.47c.7.068,1.339.1,1.861.115a1.42,1.42,0,0,1,1.19,1.178c0,.175,0,.348,0,.522-4.2-.306-10.8-1.521-12.166-4.432a.249.249,0,0,0-.226-.144H72.329a.427.427,0,0,1-.08-.01.246.246,0,0,0-.193.048c-3.088,2.341-8.274,3.515-15.84,3.592a6.84,6.84,0,0,0-.426-1.674c-1.157-2.781-2.734-3.831-5.752-3.695-.352.02-.717.027-1.082.047a.115.115,0,0,1,.027.027,5.074,5.074,0,0,1,.839,1.259,8.649,8.649,0,0,1,.656,1.942c.2,1,.156,1.38.027,1.421s-.352-.3-.717-1.2A15.471,15.471,0,0,0,49,74.059,3.786,3.786,0,0,0,47.5,72.5a5.131,5.131,0,0,0-1.78.622c-3.769,2.281-3.742,7.39-1.78,10.95A5.493,5.493,0,0,0,48.78,87a5.855,5.855,0,0,0,.649-1.212,11.235,11.235,0,0,0,.589-2.043,24.188,24.188,0,0,0,.406-3.059c.108-1.55.095-2.152.25-2.172.122-.02.393.568.467,2.186a16.18,16.18,0,0,1-.2,3.214,11.7,11.7,0,0,1-.582,2.233,8.434,8.434,0,0,1-.385.853,16.936,16.936,0,0,0,2.625-.413c1.7-.656,2.8-2.495,3.331-4.55,2.318.146,5.1.2,7.979.2,3.076,0,6.253-.059,9.057-.124.611-.012,1.224-.03,1.838-.048,1.963-.056,3.993-.115,5.964-.006l.214.015a19.84,19.84,0,0,0,4.987-.065A4.052,4.052,0,0,1,85,83.384a3.146,3.146,0,0,1-2.091.656,3.374,3.374,0,0,0,3.634,2.619c.237.007.48.007.724,0a7.113,7.113,0,0,0,2.07-2.652,8.443,8.443,0,0,0,.772-2.856,11.562,11.562,0,0,0,.007-1.611c-.027-.331,0-.5.067-.521s.169.1.318.433a4.934,4.934,0,0,1,.325,1.719,7.721,7.721,0,0,1-.629,3.215,8.059,8.059,0,0,1-1.2,2c-.041.047-.088.094-.135.142a5.736,5.736,0,0,0,2.192-.792c2.653-1.7,4.088-7.112,1.685-9.616A6.784,6.784,0,0,0,88.374,74.255Zm-42.315,7.39c-.128.873-1.394,1.4-1.847.426a5.982,5.982,0,0,1-.081-5.258,1.025,1.025,0,0,1,1.854.244c.419,1.191.054,2.436.338,3.641A.959.959,0,0,1,46.059,81.645Zm10.247-2.127a65.793,65.793,0,0,0,9.152-.586,22.752,22.752,0,0,0,4.471-1.385c.75-.293,1.315-.565,1.768-.783l.164-.079a11.811,11.811,0,0,1-1.8,1.065,19.3,19.3,0,0,1-4.521,1.615,59.886,59.886,0,0,1-9.271.674C56.283,79.865,56.3,79.69,56.306,79.518Z"/><path fill="#E0AF81" d="M71.815,68.229a.25.25,0,0,0-.049-.207.247.247,0,0,0-.191-.093c-.976-.018-1.953-.047-2.93-.076-2.035-.061-4.141-.123-6.215-.074a.255.255,0,0,0-.177.079.25.25,0,0,0-.067.182A7.874,7.874,0,0,0,62.8,70.5a.243.243,0,0,0,.286.157c.862-.18,1.755-.284,2.619-.385.3-.034.591-.068.887-.105a.25.25,0,0,0,.2-.157.894.894,0,0,1,.611-.527.7.7,0,0,1,.654.2A10.362,10.362,0,0,0,70.7,71.516a.255.255,0,0,0,.111.026.243.243,0,0,0,.1-.021.246.246,0,0,0,.14-.154,30.922,30.922,0,0,0,.757-3.1l-.237-.089h0Z"/><path fill="#E0AF81" d="M73.2,69.069c-.171.8-.347,1.633-.585,2.428a.25.25,0,0,0,.021.195.253.253,0,0,0,.156.119l.181.046a8.623,8.623,0,0,0,2.073.36,2.025,2.025,0,0,0,1.849-.919,23.066,23.066,0,0,0,1.548-3.05c.2-.437.391-.875.611-1.338a.7.7,0,0,1,.722-.5h1.219a.248.248,0,0,0,.24-.182c.082-.288.158-.576.227-.871a.251.251,0,0,0-.22-.3c-2.056-.2-4.174-.234-6.22-.266-1.35-.022-2.746-.044-4.1-.114a73.9,73.9,0,0,0-11.252.049.248.248,0,0,0-.22.2,10.233,10.233,0,0,0-.16,1.221.251.251,0,0,0,.271.27,76.973,76.973,0,0,1,9.083-.087c1.293.038,2.63.078,3.949.088a.935.935,0,0,1,.222.027.874.874,0,0,1,.656.327.716.716,0,0,1,.112.621C73.435,67.944,73.315,68.506,73.2,69.069Z"/><path fill="#E0AF81" d="M121.87,47.95a8.483,8.483,0,0,0-4.079-4.761c-4.086-2.132-8.92-2.117-12.2-1.922a102.356,102.356,0,0,0-30.438,7.02c-3.292,1.265-6.577,2.682-9.754,4.053-2.673,1.153-5.437,2.345-8.188,3.439C52.136,57.8,48.038,57.914,42.25,57.42a85.862,85.862,0,0,0-18.174.157A31.05,31.05,0,0,0,18.437,59a39.061,39.061,0,0,1-4.179,1.176,13.89,13.89,0,0,1-3.887.059c-.36-.029-.727-.056-1.1-.077-1.105-.173-3.115-.274-3.378.727,0,.007-.009.011-.011.018a.619.619,0,0,0,0,.086,1.023,1.023,0,0,0-.009.194c0,.015,0,.03.006.046a1.321,1.321,0,0,0,.028.2.441.441,0,0,0,.272.318c1.315,1.424,6.631,2.889,7.205,3.008a29.115,29.115,0,0,0,5.991.535c.605,0,1.21-.02,1.816-.038a15.875,15.875,0,0,0-.112,3.052c.088,1.277,2.088,1.287,2,0a13.9,13.9,0,0,1,.079-2.919,1.444,1.444,0,0,0,0-.208c.413-.019.828-.037,1.239-.058.962-.049,1.914-.1,2.851-.128,2.007-.068,4.025-.109,6.046-.138l.06,3.39a1,1,0,0,0,2,0q-.03-1.7-.061-3.408c4.517-.041,9.032-.02,13.452.009,2.9.019,5.8.038,8.7.038a.626.626,0,0,1,.171.019.259.259,0,0,0,.2-.029.25.25,0,0,0,.113-.166c.04-.211.079-.416.132-.614.006-.016.033-.09.037-.107a.847.847,0,0,1,.732-.708,68.565,68.565,0,0,1,12.063-.141c1.379.073,2.791.094,4.156.114a64.754,64.754,0,0,1,7.067.365.768.768,0,0,1,.416.172.262.262,0,0,0,.116.056.835.835,0,0,1,.489.278.248.248,0,0,0,.191.091c1.336.013,2.686.045,4.045.078,6.749.164,13.729.33,20.124-1.926,2.218-.78,9.669-4.011,12.56-7.7a5.083,5.083,0,0,0,1.818-6.724Zm-.651,3.72a3.549,3.549,0,0,0-1.177-2.321c-3.709-3.613-10.883-3.831-15.956-3.684a64.828,64.828,0,0,0-22.016,4.8c-2.674,1.051-5.348,2.259-7.934,3.427a103.906,103.906,0,0,1-13.469,5.342,58.719,58.719,0,0,1-22.486,2.11c-7.369-.768-14.024.006-22.009,1.1-2.942.409-6.887.952-9.291-1.089a.5.5,0,0,0-.01-.191c0,.019,1.033-.12,1.2-.122a5.816,5.816,0,0,1,1.428.168.473.473,0,0,0,.3-.028,9.254,9.254,0,0,0,2.107.226,27.211,27.211,0,0,0,4.822-.575l.555-.1.29-.051a72.705,72.705,0,0,1,9.254-1.251,100.828,100.828,0,0,1,10.715.255c5.53.328,11.25.667,16.953-.5,7.02-1.439,13.67-4.286,20.1-7.038,8.246-3.529,16.772-7.178,26.1-7.845,5.119-.365,11.676-.491,17,1.781a9.451,9.451,0,0,1,3.209,2.208A4.435,4.435,0,0,1,121.219,51.67Z"/></g><text x="0" y="143" fill="transparent" font-size="5px" font-weight="bold" font-family="'Helvetica Neue', Helvetica, Arial-Unicode, Arial, Sans-serif">Created by Hey Rabbit</text><text x="0" y="148" fill="transparent" font-size="5px" font-weight="bold" font-family="'Helvetica Neue', Helvetica, Arial-Unicode, Arial, Sans-serif">from the Noun Project</text></svg>