<svg xmlns="http://www.w3.org/2000/svg" version="1.1" xmlns:xlink="http://www.w3.org/1999/xlink" xmlns:svgjs="http://svgjs.dev/svgjs" viewBox="0 0 800 800"><g fill="none" stroke-width="3" stroke="hsl(305, 77%, 40%)" stroke-linecap="round" stroke-dasharray="96.5 0"><line x1="462.5" y1="400" x2="337.5" y2="400" transform="rotate(0, 400, 400)" opacity="0.43"></line><line x1="400.5" y1="400" x2="399.5" y2="400" transform="rotate(4, 400, 400)" opacity="0.96"></line><line x1="221.5" y1="400" x2="578.5" y2="400" transform="rotate(8, 400, 400)" opacity="0.57"></line><line x1="631" y1="400" x2="169" y2="400" transform="rotate(12, 400, 400)" opacity="0.61"></line><line x1="46" y1="400" x2="754" y2="400" transform="rotate(16, 400, 400)" opacity="0.10"></line><line x1="668" y1="400" x2="132" y2="400" transform="rotate(20, 400, 400)" opacity="0.75"></line><line x1="47" y1="400" x2="753" y2="400" transform="rotate(24, 400, 400)" opacity="0.92"></line><line x1="242" y1="400" x2="558" y2="400" transform="rotate(28, 400, 400)" opacity="0.99"></line><line x1="39.5" y1="400" x2="760.5" y2="400" transform="rotate(32, 400, 400)" opacity="0.35"></line><line x1="434.5" y1="400" x2="365.5" y2="400" transform="rotate(36, 400, 400)" opacity="0.33"></line><line x1="689" y1="400" x2="111" y2="400" transform="rotate(40, 400, 400)" opacity="0.85"></line><line x1="224.5" y1="400" x2="575.5" y2="400" transform="rotate(44, 400, 400)" opacity="0.22"></line><line x1="90" y1="400" x2="710" y2="400" transform="rotate(48, 400, 400)" opacity="0.73"></line><line x1="312" y1="400" x2="488" y2="400" transform="rotate(52, 400, 400)" opacity="0.35"></line><line x1="588.5" y1="400" x2="211.5" y2="400" transform="rotate(56, 400, 400)" opacity="0.28"></line><line x1="152" y1="400" x2="648" y2="400" transform="rotate(60, 400, 400)" opacity="0.65"></line><line x1="256" y1="400" x2="544" y2="400" transform="rotate(64, 400, 400)" opacity="0.45"></line><line x1="490.5" y1="400" x2="309.5" y2="400" transform="rotate(68, 400, 400)" opacity="0.88"></line><line x1="514" y1="400" x2="286" y2="400" transform="rotate(72, 400, 400)" opacity="0.26"></line><line x1="560" y1="400" x2="240" y2="400" transform="rotate(76, 400, 400)" opacity="0.26"></line><line x1="426" y1="400" x2="374" y2="400" transform="rotate(80, 400, 400)" opacity="0.15"></line><line x1="192.5" y1="400" x2="607.5" y2="400" transform="rotate(84, 400, 400)" opacity="0.54"></line><line x1="243.5" y1="400" x2="556.5" y2="400" transform="rotate(88, 400, 400)" opacity="0.91"></line><line x1="608" y1="400" x2="192" y2="400" transform="rotate(92, 400, 400)" opacity="0.52"></line><line x1="243" y1="400" x2="557" y2="400" transform="rotate(96, 400, 400)" opacity="0.85"></line><line x1="525.5" y1="400" x2="274.5" y2="400" transform="rotate(100, 400, 400)" opacity="0.69"></line><line x1="418" y1="400" x2="382" y2="400" transform="rotate(104, 400, 400)" opacity="0.28"></line><line x1="267" y1="400" x2="533" y2="400" transform="rotate(108, 400, 400)" opacity="0.44"></line><line x1="660.5" y1="400" x2="139.5" y2="400" transform="rotate(112, 400, 400)" opacity="0.89"></line><line x1="729.5" y1="400" x2="70.5" y2="400" transform="rotate(116, 400, 400)" opacity="0.26"></line><line x1="110" y1="400" x2="690" y2="400" transform="rotate(120, 400, 400)" opacity="0.42"></line><line x1="164.5" y1="400" x2="635.5" y2="400" transform="rotate(124, 400, 400)" opacity="0.92"></line><line x1="699.5" y1="400" x2="100.5" y2="400" transform="rotate(128, 400, 400)" opacity="0.51"></line><line x1="54" y1="400" x2="746" y2="400" transform="rotate(132, 400, 400)" opacity="0.24"></line><line x1="269.5" y1="400" x2="530.5" y2="400" transform="rotate(136, 400, 400)" opacity="0.80"></line><line x1="506" y1="400" x2="294" y2="400" transform="rotate(140, 400, 400)" opacity="0.28"></line><line x1="205.5" y1="400" x2="594.5" y2="400" transform="rotate(144, 400, 400)" opacity="0.96"></line><line x1="355.5" y1="400" x2="444.5" y2="400" transform="rotate(148, 400, 400)" opacity="0.32"></line><line x1="521" y1="400" x2="279" y2="400" transform="rotate(152, 400, 400)" opacity="0.66"></line><line x1="302.5" y1="400" x2="497.5" y2="400" transform="rotate(156, 400, 400)" opacity="0.59"></line><line x1="455" y1="400" x2="345" y2="400" transform="rotate(160, 400, 400)" opacity="0.19"></line><line x1="67.5" y1="400" x2="732.5" y2="400" transform="rotate(164, 400, 400)" opacity="0.90"></line><line x1="425" y1="400" x2="375" y2="400" transform="rotate(168, 400, 400)" opacity="0.90"></line><line x1="56.5" y1="400" x2="743.5" y2="400" transform="rotate(172, 400, 400)" opacity="0.49"></line><line x1="157" y1="400" x2="643" y2="400" transform="rotate(176, 400, 400)" opacity="0.33"></line><line x1="152" y1="400" x2="648" y2="400" transform="rotate(180, 400, 400)" opacity="0.60"></line><line x1="169" y1="400" x2="631" y2="400" transform="rotate(184, 400, 400)" opacity="0.37"></line><line x1="546.5" y1="400" x2="253.5" y2="400" transform="rotate(188, 400, 400)" opacity="0.33"></line><line x1="223.5" y1="400" x2="576.5" y2="400" transform="rotate(192, 400, 400)" opacity="0.95"></line><line x1="550.5" y1="400" x2="249.5" y2="400" transform="rotate(196, 400, 400)" opacity="0.98"></line><line x1="422.5" y1="400" x2="377.5" y2="400" transform="rotate(200, 400, 400)" opacity="0.12"></line><line x1="413.5" y1="400" x2="386.5" y2="400" transform="rotate(204, 400, 400)" opacity="0.59"></line><line x1="613.5" y1="400" x2="186.5" y2="400" transform="rotate(208, 400, 400)" opacity="0.52"></line><line x1="336" y1="400" x2="464" y2="400" transform="rotate(212, 400, 400)" opacity="0.57"></line><line x1="568.5" y1="400" x2="231.5" y2="400" transform="rotate(216, 400, 400)" opacity="0.69"></line><line x1="201.5" y1="400" x2="598.5" y2="400" transform="rotate(220, 400, 400)" opacity="0.78"></line><line x1="271" y1="400" x2="529" y2="400" transform="rotate(224, 400, 400)" opacity="0.62"></line><line x1="120" y1="400" x2="680" y2="400" transform="rotate(228, 400, 400)" opacity="0.82"></line><line x1="460" y1="400" x2="340" y2="400" transform="rotate(232, 400, 400)" opacity="0.12"></line><line x1="734.5" y1="400" x2="65.5" y2="400" transform="rotate(236, 400, 400)" opacity="0.99"></line><line x1="320" y1="400" x2="480" y2="400" transform="rotate(240, 400, 400)" opacity="0.17"></line><line x1="555.5" y1="400" x2="244.5" y2="400" transform="rotate(244, 400, 400)" opacity="0.91"></line><line x1="476" y1="400" x2="324" y2="400" transform="rotate(248, 400, 400)" opacity="0.81"></line><line x1="305.5" y1="400" x2="494.5" y2="400" transform="rotate(252, 400, 400)" opacity="0.36"></line><line x1="215" y1="400" x2="585" y2="400" transform="rotate(256, 400, 400)" opacity="0.82"></line><line x1="199" y1="400" x2="601" y2="400" transform="rotate(260, 400, 400)" opacity="0.69"></line><line x1="471.5" y1="400" x2="328.5" y2="400" transform="rotate(264, 400, 400)" opacity="0.37"></line><line x1="638" y1="400" x2="162" y2="400" transform="rotate(268, 400, 400)" opacity="0.37"></line><line x1="332" y1="400" x2="468" y2="400" transform="rotate(272, 400, 400)" opacity="0.97"></line><line x1="744" y1="400" x2="56" y2="400" transform="rotate(276, 400, 400)" opacity="0.55"></line><line x1="590" y1="400" x2="210" y2="400" transform="rotate(280, 400, 400)" opacity="0.33"></line><line x1="112" y1="400" x2="688" y2="400" transform="rotate(284, 400, 400)" opacity="0.38"></line><line x1="23.5" y1="400" x2="776.5" y2="400" transform="rotate(288, 400, 400)" opacity="0.07"></line><line x1="195.5" y1="400" x2="604.5" y2="400" transform="rotate(292, 400, 400)" opacity="0.90"></line><line x1="633" y1="400" x2="167" y2="400" transform="rotate(296, 400, 400)" opacity="0.80"></line><line x1="210" y1="400" x2="590" y2="400" transform="rotate(300, 400, 400)" opacity="0.67"></line><line x1="364" y1="400" x2="436" y2="400" transform="rotate(304, 400, 400)" opacity="0.41"></line><line x1="173" y1="400" x2="627" y2="400" transform="rotate(308, 400, 400)" opacity="0.43"></line><line x1="602" y1="400" x2="198" y2="400" transform="rotate(312, 400, 400)" opacity="0.67"></line><line x1="170" y1="400" x2="630" y2="400" transform="rotate(316, 400, 400)" opacity="0.81"></line><line x1="293.5" y1="400" x2="506.5" y2="400" transform="rotate(320, 400, 400)" opacity="0.19"></line><line x1="705.5" y1="400" x2="94.5" y2="400" transform="rotate(324, 400, 400)" opacity="0.26"></line><line x1="321.5" y1="400" x2="478.5" y2="400" transform="rotate(328, 400, 400)" opacity="0.67"></line><line x1="515.5" y1="400" x2="284.5" y2="400" transform="rotate(332, 400, 400)" opacity="0.71"></line><line x1="72" y1="400" x2="728" y2="400" transform="rotate(336, 400, 400)" opacity="0.77"></line><line x1="220.5" y1="400" x2="579.5" y2="400" transform="rotate(340, 400, 400)" opacity="1.00"></line><line x1="445.5" y1="400" x2="354.5" y2="400" transform="rotate(344, 400, 400)" opacity="0.22"></line><line x1="646.5" y1="400" x2="153.5" y2="400" transform="rotate(348, 400, 400)" opacity="0.94"></line></g></svg>